<?xml version="1.0" encoding="utf-8"?>
<!-- Generator: Adobe Illustrator 24.2.1, SVG Export Plug-In . SVG Version: 6.00 Build 0)  -->
<svg version="1.1" id="Calque_1" xmlns="http://www.w3.org/2000/svg" xmlns:xlink="http://www.w3.org/1999/xlink" x="0px" y="0px"
	 width="106.86px" height="28.53px" viewBox="0 0 106.86 28.53" style="enable-background:new 0 0 106.86 28.53;"
	 xml:space="preserve">
<style type="text/css">
	.st0{fill:#FFFFFF;stroke:#1D1D1B;stroke-width:1.5118;stroke-miterlimit:10;}
	.st1{fill:#1D1D1B;}
	.st2{fill:none;stroke:#1D1D1B;stroke-width:1.5118;stroke-linejoin:round;stroke-miterlimit:10;}
	.st3{fill:#FFFFFF;stroke:#1D1D1B;stroke-width:1.2598;stroke-linejoin:round;stroke-miterlimit:10;}
	.st4{fill:none;stroke:#1D1D1B;stroke-width:1.5118;stroke-miterlimit:10;stroke-dasharray:4.5354,4.5354;}
	.st5{fill:none;stroke:#1D1D1B;stroke-width:1.5118;stroke-miterlimit:10;}
</style>
<g>
	<rect x="5.8" y="5.8" class="st0" width="31.76" height="16.94"/>
	<g>
		<g>
			<path class="st1" d="M26.64,12.83c0.38,0,0.7-0.04,0.99-0.11c0.28-0.07,0.53-0.17,0.74-0.3c0.21-0.12,0.39-0.26,0.54-0.42
				c0.15-0.16,0.27-0.32,0.36-0.49c0.1-0.17,0.17-0.34,0.23-0.5c0.06-0.17,0.1-0.32,0.13-0.45h1.71c-0.06,0.39-0.19,0.78-0.4,1.19
				c-0.21,0.41-0.51,0.78-0.89,1.12c-0.39,0.34-0.87,0.62-1.45,0.83c-0.58,0.22-1.28,0.32-2.08,0.32c-0.66,0-1.25-0.08-1.78-0.25
				c-0.52-0.16-1-0.38-1.43-0.65c-0.43-0.27-0.82-0.58-1.18-0.92c-0.36-0.35-0.7-0.7-1.02-1.06c-0.32-0.36-0.64-0.71-0.95-1.06
				c-0.31-0.35-0.64-0.65-0.99-0.92c-0.35-0.27-0.72-0.48-1.13-0.65c-0.4-0.16-0.85-0.25-1.34-0.25c-0.38,0-0.7,0.04-0.99,0.11
				c-0.28,0.07-0.53,0.17-0.74,0.3c-0.21,0.12-0.39,0.26-0.54,0.42c-0.15,0.16-0.27,0.32-0.36,0.49c-0.09,0.17-0.17,0.34-0.22,0.5
				s-0.1,0.32-0.13,0.45h-1.71c0.06-0.39,0.19-0.78,0.39-1.19c0.2-0.41,0.5-0.78,0.89-1.12c0.39-0.34,0.87-0.62,1.45-0.83
				c0.58-0.22,1.28-0.32,2.08-0.32c0.66,0,1.25,0.08,1.77,0.25c0.52,0.16,0.99,0.38,1.42,0.65c0.42,0.27,0.81,0.58,1.16,0.92
				c0.35,0.35,0.69,0.7,1.01,1.06c0.32,0.36,0.64,0.71,0.95,1.06c0.31,0.35,0.64,0.65,0.99,0.92c0.35,0.27,0.73,0.48,1.14,0.65
				C25.67,12.75,26.13,12.83,26.64,12.83z"/>
		</g>
		<path class="st2" d="M9.52,20.22c0,0,0-4.93,3.45-4.78s3.59,4.78,3.59,4.78h5.75c0,0-0.58-4.78,3.02-4.78s3.74,4.78,3.74,4.78
			h4.74"/>
	</g>
</g>
<g>
	<rect x="37.55" y="5.8" class="st0" width="31.76" height="16.94"/>
	<polyline class="st3" points="42.46,14.38 43.61,7.92 45.36,20.69 47.24,7.92 49.24,20.69 50.44,7.83 52.17,20.69 53.43,7.93 
		55.19,20.69 56.37,7.92 58.39,20.69 59.53,7.92 61.56,20.69 62.59,7.92 64.4,14.6 	"/>
</g>
<g>
	<rect x="69.31" y="5.8" class="st0" width="31.76" height="16.94"/>
	<g>
		<line class="st4" x1="73.81" y1="16.8" x2="96.55" y2="16.8"/>
		<line class="st5" x1="73.81" y1="11.73" x2="96.55" y2="11.73"/>
	</g>
</g>
<g>
</g>
<g>
</g>
<g>
</g>
<g>
</g>
<g>
</g>
<g>
</g>
</svg>
